<?xml version="1.0" encoding="utf-8"?>
<!DOCTYPE svg PUBLIC "-//W3C//DTD SVG 1.1//EN" "http://www.w3.org/Graphics/SVG/1.1/DTD/svg11.dtd">
<svg version="1.1" id="code" xmlns="http://www.w3.org/2000/svg" xmlns:xlink="http://www.w3.org/1999/xlink" x="0px" y="0px"
	 viewBox="0 0 509.9 450" style="enable-background:new 0 0 509.9 450;" xml:space="preserve">
<style type="text/css">
	.st0{fill:#FFFFFF;}
</style>
<path class="st0" d="M491.5,57H21.9c-9.2,0-16.7,7.5-16.7,16.7v358.6c0,9.2,7.5,16.7,16.7,16.7h468.6c9.2,0,16.7-7.5,17.5-15.8V73.7
	C508.1,64.5,500.6,57,491.5,57L491.5,57z M474.7,416.4h-437V196.3h437V416.4z M474.7,162.9h-437V89.6h437V162.9z M176.8,128.3
	c0,9.1-7.3,16.4-16.4,16.4c-9.1,0-16.4-7.3-16.4-16.4s7.3-16.4,16.4-16.4S176.8,119.2,176.8,128.3L176.8,128.3z M115.1,128.3
	c0,9.1-7.3,16.4-16.4,16.4s-16.4-7.3-16.4-16.4s7.3-16.4,16.4-16.4C107.7,111.9,115.1,119.2,115.1,128.3L115.1,128.3z M176.4,344.4
	l-37.5-37.5l37.5-37.5c6.6-6.6,6.6-16.6,0-23.4c-6.6-6.6-16.6-6.6-23.4,0l-49.2,49.2c-6.6,6.6-6.6,16.6,0,23.4l49.2,49.2
	c6.2,6.2,15.4,7.2,23.4,0C183.3,361.3,183,351,176.4,344.4L176.4,344.4z M359.7,246c-6.6-6.6-16.6-6.6-23.4,0
	c-6.7,6.6-6.6,16.6,0,23.4l37.5,37.5l-37.5,37.5c-6.6,6.6-6.6,16.6,0,23.4c6,6.2,16.5,7.3,23.4,0l49.2-49.2c6.6-6.6,8.3-14.7,0-23.4
	L359.7,246z M323.9,215.2c-8.3-3.4-18.3,0-21.7,8.3l-66.6,151.7c-3.4,8.3,0,18.3,8.3,21.7c7.2,3.4,17.2,1.7,21.7-8.3l66.6-151.7
	C335.5,228.5,332.2,218.5,323.9,215.2L323.9,215.2z"/>
</svg>
