<?xml version="1.0" encoding="utf-8"?>
<!DOCTYPE svg PUBLIC "-//W3C//DTD SVG 1.1//EN" "http://www.w3.org/Graphics/SVG/1.1/DTD/svg11.dtd">
<svg version="1.1" id="design" xmlns="http://www.w3.org/2000/svg" xmlns:xlink="http://www.w3.org/1999/xlink" x="0px" y="0px"
	 viewBox="0 0 509.9 450" style="enable-background:new 0 0 509.9 450;" xml:space="preserve">
<style type="text/css">
	.st0{fill:#FFFFFF;}
</style>
<path class="st0" d="M177.5,415.8h-139c0-9.1-7.5-16.6-16.6-16.6s-16.6,7.4-16.6,16.6v16.6c0,9.1,7.5,16.6,16.6,16.6h155.6
	c8.3,0,15.8-6.6,16.6-16.6C194.1,423.2,186.7,415.8,177.5,415.8L177.5,415.8z M369.1,90.4h105.7v32.5c0,9.1,7.5,16.6,16.6,16.6
	s15.8-7.5,16.6-16.6V73.7c0-9.1-7.5-16.6-16.6-16.6H369.1c-9.1,0-16.6,7.5-16.6,16.6S359.9,90.4,369.1,90.4L369.1,90.4z M21.9,331.8
	c9.1,0,16.6-7.5,16.6-16.6V90.4h48.2c9.1,0,16.6-7.5,16.6-16.6s-7.4-16.6-16.6-16.6H21.9c-9.2,0-16.6,7.5-16.6,16.6v241.4
	C5.2,324.4,12.7,331.8,21.9,331.8L21.9,331.8z M491.5,277.6c-9.1,0-16.6,7.5-16.6,16.6v121.5h-16.6c-9.1,0-16.6,7.5-16.6,16.6
	s7.5,16.6,16.6,16.6h32.5c9.1,0,15.8-6.6,17.4-15.8v-139C508.1,285.2,500.7,277.6,491.5,277.6L491.5,277.6z M421.6,128h-33.4
	c-9.1,0-16.6,7.5-16.6,16.6s7.5,16.6,16.6,16.6H405v54c0,9.1,7.5,16.6,16.6,16.6c8.3,0,15.8-7.5,16.6-16.6v-70.6
	C438.2,135.5,430.8,128,421.6,128L421.6,128z M198.4,346.2h-89.9v-49.1c0-9.1-7.5-16.6-16.6-16.6s-16.6,7.5-16.6,16.6V362
	c0,9.1,7.5,16.6,16.6,16.6h106.6c9.1,0,16.6-7.5,16.6-15.8C215.1,353.7,207.5,346.2,198.4,346.2L198.4,346.2z M317.5,15.7
	c0-8.8-7.2-16-16-16H155.9c-8.8,0-16,7.2-16,16v112.4h-0.1v64.8c0,3.3,1,6.4,2.8,9l72.8,105.7c9.5,9.5,16.1,10.3,26.3,0l72.8-105.7
	c2-2.9,2.9-6.2,2.8-9.4v-57.8h0.2V15.7z M228.7,270.3l-44.8-65l16.1-16.1l17.4,17.4c5.8,5.8,15.7,7,22.6,0l17.4-17.4l16.2,16.1
	L228.7,270.3z M285.5,31.7v103v7.3v30l-16.8-16.8c-6.8-6.8-15.5-7-22.6,0l-17.4,17.4l-17.4-17.4c-6.2-6.2-16.4-6.2-22.6,0L171.8,172
	v-30v-7.3v-103C171.8,31.7,285.5,31.7,285.5,31.7z"/>
</svg>
