<?xml version="1.0" encoding="utf-8"?>
<!DOCTYPE svg PUBLIC "-//W3C//DTD SVG 1.1//EN" "http://www.w3.org/Graphics/SVG/1.1/DTD/svg11.dtd">
<svg version="1.1" id="target_wide" xmlns="http://www.w3.org/2000/svg" xmlns:xlink="http://www.w3.org/1999/xlink" x="0px"
	 y="0px" viewBox="0 0 509.9 450" style="enable-background:new 0 0 509.9 450;" xml:space="preserve">
<style type="text/css">
	.st0{fill:#FFFFFF;}
</style>
<path class="st0" d="M348.7,362.4c9.1,0,16.6-7.5,16.6-16.6V270h69.9c9.1,0,17.4-7.5,17.4-16.6c0-9.1-7.5-16.6-16.6-16.6h-70.7V161
	c0-9.1-7.5-16.6-16.6-16.6h-75.8v-70c0-9.1-7.5-16.6-16.6-16.6s-16.6,7.5-16.6,16.6v69.9h-75.8c-9.1,0-16.6,7.5-16.6,16.6v75.8h-70
	c-9.1,0-16.6,7.5-16.6,16.6c0,9.1,7.5,16.6,16.6,16.6h69.9v75.8c0,9.1,7.5,16.6,16.6,16.6h75.8v69.9c0,9.1,7.5,16.6,16.6,16.6
	c9.1,0,16.6-7.5,16.6-15.8v-70.7L348.7,362.4L348.7,362.4z M332.9,329.1H273V270h59.9V329.1z M332.9,177.6v59.1H273v-59.1H332.9z
	 M180.5,177.6h59.1v59.1h-59.1V177.6z M180.5,329.1V270h59.1v59.1H180.5z M491.4,334.1c-9.1,0-16.6,7.5-16.6,16.6v64.9h-64.9
	c-9.1,0-16.6,7.5-16.6,16.6s7.5,16.6,16.6,16.6h81.6c9.1,0,16.6-7.5,16.6-16.6v-81.6C508,341.6,500.5,334.1,491.4,334.1L491.4,334.1
	z M103.5,415.7h-65v-64.9c0-9.1-7.5-16.6-16.6-16.6s-16.6,7.5-16.6,16.6v81.6c0,9.1,7.5,16.6,16.6,16.6h81.6
	c8.3,0,16.6-7.5,16.6-16.6C120.1,423.1,112.6,415.7,103.5,415.7L103.5,415.7z M21.9,171.8c8.3,0,15.8-7.5,15.8-15.8V91.1h65.8
	c9.1,0,16.6-7.5,16.6-16.6s-7.5-16.7-16.6-16.7H21.9c-9.1,0-16.6,7.5-16.6,16.6v80.7C5.2,164.3,12.7,171.8,21.9,171.8L21.9,171.8z
	 M409.9,90.2h64.9v64.9c0,9.1,7.5,16.6,16.6,16.6s16.6-7.5,16.6-16.6V73.5c0-9.1-7.5-16.6-16.6-16.6h-81.6
	c-9.1,0-16.6,7.5-16.6,16.6C393.2,82.6,400.8,90.2,409.9,90.2L409.9,90.2z"/>
</svg>
