<?xml version="1.0" encoding="utf-8"?>
<!-- Generator: Adobe Illustrator 22.1.0, SVG Export Plug-In . SVG Version: 6.00 Build 0)  -->
<!DOCTYPE svg PUBLIC "-//W3C//DTD SVG 1.1//EN" "http://www.w3.org/Graphics/SVG/1.1/DTD/svg11.dtd">
<svg version="1.1" id="Capa_1" xmlns="http://www.w3.org/2000/svg" xmlns:xlink="http://www.w3.org/1999/xlink" x="0px" y="0px"
	 viewBox="0 0 356.7 248.1" style="enable-background:new 0 0 356.7 248.1;" xml:space="preserve">
<path d="M7.8,193.4c10.7,18.2,31.8,29.8,55,30.2c20.2,0.3,39.5-8.4,50.3-22.9c3-4,5.3-8.3,6.9-13l39.8,5l26.1,55.2h48.4l-20-48.2
	l136.2,17.1c1.2,0.2,2.5-0.3,3.3-1.2c0.8-0.9,1.2-2.2,0.9-3.4l-1.7-7.6c-0.6-2.9-1.7-6-3.3-9.7c-3.3-7.6-9.6-17.4-20.5-21.6
	c-3-1.1-5.9-1.5-8.7-2c-0.5-0.1-0.9-0.1-1.4-0.2l-125.1-22.1l-16.5-38.2c1.4-1,2.8-2.1,4.2-3.3c2.4-2.1,4.6-4.5,6.5-7.1
	c11.4-15.1,13.9-37.3,6.9-57.3c-1.3-3.7-3.6-9-8.5-16.5c-3.6-5.2-7.9-9.8-12.7-13.7c-8.3-6.8-18-11.1-27.8-12.4
	c-10.7-1.5-21.6,0.6-30.6,6c-5.3,3.1-9.8,7.2-13.5,12.2c0,0,0,0,0,0c-11.1,14.7-14,36.1-7.7,55.7c0,0,0,0.1,0,0.1l1.1,3.1
	c2.9,7.7,7.2,15,12.5,21c0,0,0,0.1,0.1,0.1c1.9,2.1,2.6,2.7,2.8,3c18.3,18.6,27.9,33.5,32.9,44c-11.5-1.9-28.5-6.9-51.4-19.4
	c-0.3-0.2-1.1-0.6-3.7-1.9c0,0-0.1,0-0.1,0c-7.3-3.4-15.5-5.5-23.6-6.2l-3.3-0.2c0,0-0.1,0-0.1,0c-14.9-0.5-29.2,3.8-40.3,12
	c-4.2,3.1-7.8,6.7-10.9,10.7C5.3,147.8,2,156,1.2,164.4C0.3,174.2,2.6,184.5,7.8,193.4z M137.4,83.8c-8-5.7-13.6-15.3-15-25.6
	c-1.1-7.8,0.6-15.8,4.4-20.8c1.7-2.3,3.9-4,6.5-5.2c0,0,0,0,0,0l0,0c6-2.6,13.5-1.2,20.1,3.7c7.1,5.3,12.3,13.7,14.2,23.1
	c1.3,6.7,1,16.3-4,22.9c-1.2,1.6-2.6,2.9-4.1,4C152.2,90.7,143.1,87.8,137.4,83.8z M35.3,159.3c0.3-0.4,0.6-0.8,0.9-1.2
	c7.2-8.1,19-9.9,27.7-8.9l1.1,0.1c9.3,1.3,17.4,5.6,22.3,11.8c5,6.3,5.6,14.3,1.6,20.3c-0.2,0.3-0.4,0.6-0.6,0.9
	c-6.1,8.2-17.4,10.7-25.9,10.3c-10.5-0.5-20.1-4.9-25.7-11.8c-2.6-3.2-4.2-6.7-4.5-10.2C31.6,166.7,32.8,162.6,35.3,159.3z"/>
</svg>
